<svg width="12" height="14" viewBox="0 0 12 14" fill="none" xmlns="http://www.w3.org/2000/svg">
<path d="M10.1766 2.07168C8.70472 0.599805 6.30785 0.599805 4.83754 2.07168L0.759412 6.14668C0.73285 6.17324 0.718787 6.20918 0.718787 6.24668C0.718787 6.28418 0.73285 6.32012 0.759412 6.34668L1.33597 6.92324C1.36233 6.94948 1.398 6.96421 1.43519 6.96421C1.47238 6.96421 1.50806 6.94948 1.53441 6.92324L5.61254 2.84824C6.11879 2.34199 6.79222 2.06387 7.50785 2.06387C8.22347 2.06387 8.89691 2.34199 9.4016 2.84824C9.90785 3.35449 10.186 4.02793 10.186 4.74199C10.186 5.45762 9.90785 6.12949 9.4016 6.63574L5.24535 10.7904L4.57191 11.4639C3.94222 12.0936 2.91879 12.0936 2.2891 11.4639C1.98441 11.1592 1.81722 10.7545 1.81722 10.3232C1.81722 9.89199 1.98441 9.4873 2.2891 9.18262L6.41254 5.06074C6.51723 4.95762 6.65472 4.8998 6.8016 4.8998H6.80316C6.95004 4.8998 7.08597 4.95762 7.1891 5.06074C7.29379 5.16543 7.35004 5.30293 7.35004 5.4498C7.35004 5.59512 7.29222 5.73262 7.1891 5.83574L3.81879 9.20293C3.79222 9.22949 3.77816 9.26543 3.77816 9.30293C3.77816 9.34043 3.79222 9.37637 3.81879 9.40293L4.39535 9.97949C4.4217 10.0057 4.45738 10.0205 4.49457 10.0205C4.53176 10.0205 4.56743 10.0057 4.59379 9.97949L7.96254 6.61074C8.27347 6.2998 8.44379 5.8873 8.44379 5.44824C8.44379 5.00918 8.27191 4.59512 7.96254 4.28574C7.32035 3.64355 6.2766 3.64512 5.63441 4.28574L5.23441 4.6873L1.51254 8.40762C1.25993 8.65874 1.05969 8.95752 0.923436 9.28663C0.787181 9.61573 0.71762 9.96861 0.718787 10.3248C0.718787 11.0482 1.0016 11.7279 1.51254 12.2389C2.04222 12.767 2.73597 13.0311 3.42972 13.0311C4.12348 13.0311 4.81722 12.767 5.34535 12.2389L10.1766 7.41074C10.8875 6.69824 11.2813 5.7498 11.2813 4.74199C11.2828 3.73262 10.8891 2.78418 10.1766 2.07168Z" fill="#F5222D"/>
</svg>
