<svg width="10" height="12" viewBox="0 0 10 12" fill="none" xmlns="http://www.w3.org/2000/svg">
<path d="M5.80912 6L9.91068 1.11094C9.97943 1.02969 9.92162 0.90625 9.81537 0.90625H8.56849C8.49506 0.90625 8.42474 0.939062 8.37631 0.995312L4.99349 5.02813L1.61068 0.995312C1.56381 0.939062 1.49349 0.90625 1.41849 0.90625H0.171619C0.0653688 0.90625 0.00755619 1.02969 0.0763062 1.11094L4.17787 6L0.0763062 10.8891C0.0609056 10.9072 0.0510255 10.9293 0.0478385 10.9529C0.0446516 10.9764 0.0482917 11.0004 0.058327 11.022C0.0683624 11.0435 0.0843714 11.0617 0.104453 11.0745C0.124535 11.0872 0.147846 11.0939 0.171619 11.0938H1.41849C1.49193 11.0938 1.56224 11.0609 1.61068 11.0047L4.99349 6.97188L8.37631 11.0047C8.42318 11.0609 8.49349 11.0938 8.56849 11.0938H9.81537C9.92162 11.0938 9.97943 10.9703 9.91068 10.8891L5.80912 6Z" fill="#F5222D"/>
</svg>
