<svg width="12" height="14" viewBox="0 0 12 14" fill="none" xmlns="http://www.w3.org/2000/svg">
<path d="M10.1766 2.07168C8.70473 0.599805 6.30786 0.599805 4.83754 2.07168L0.75942 6.14668C0.732858 6.17324 0.718795 6.20918 0.718795 6.24668C0.718795 6.28418 0.732858 6.32012 0.75942 6.34668L1.33598 6.92324C1.36234 6.94948 1.39801 6.96421 1.4352 6.96421C1.47239 6.96421 1.50807 6.94948 1.53442 6.92324L5.61255 2.84824C6.11879 2.34199 6.79223 2.06387 7.50786 2.06387C8.22348 2.06387 8.89692 2.34199 9.40161 2.84824C9.90786 3.35449 10.186 4.02793 10.186 4.74199C10.186 5.45762 9.90786 6.12949 9.40161 6.63574L5.24536 10.7904L4.57192 11.4639C3.94223 12.0936 2.91879 12.0936 2.28911 11.4639C1.98442 11.1592 1.81723 10.7545 1.81723 10.3232C1.81723 9.89199 1.98442 9.4873 2.28911 9.18262L6.41255 5.06074C6.51723 4.95762 6.65473 4.8998 6.80161 4.8998H6.80317C6.95005 4.8998 7.08598 4.95762 7.18911 5.06074C7.29379 5.16543 7.35005 5.30293 7.35005 5.4498C7.35005 5.59512 7.29223 5.73262 7.18911 5.83574L3.81879 9.20293C3.79223 9.22949 3.77817 9.26543 3.77817 9.30293C3.77817 9.34043 3.79223 9.37637 3.81879 9.40293L4.39536 9.97949C4.42171 10.0057 4.45739 10.0205 4.49458 10.0205C4.53177 10.0205 4.56744 10.0057 4.5938 9.97949L7.96254 6.61074C8.27348 6.2998 8.4438 5.8873 8.4438 5.44824C8.4438 5.00918 8.27192 4.59512 7.96254 4.28574C7.32036 3.64355 6.27661 3.64512 5.63442 4.28574L5.23442 4.6873L1.51254 8.40762C1.25994 8.65874 1.0597 8.95752 0.923444 9.28663C0.787189 9.61573 0.717628 9.96861 0.718795 10.3248C0.718795 11.0482 1.00161 11.7279 1.51254 12.2389C2.04223 12.767 2.73598 13.0311 3.42973 13.0311C4.12348 13.0311 4.81723 12.767 5.34536 12.2389L10.1766 7.41074C10.8875 6.69824 11.2813 5.7498 11.2813 4.74199C11.2829 3.73262 10.8891 2.78418 10.1766 2.07168Z" fill="#8C8C8C"/>
</svg>
