<svg width="10" height="12" viewBox="0 0 10 12" fill="none" xmlns="http://www.w3.org/2000/svg">
<path d="M5.80913 6L9.9107 1.11094C9.97945 1.02969 9.92163 0.90625 9.81538 0.90625H8.56851C8.49507 0.90625 8.42476 0.939062 8.37632 0.995312L4.99351 5.02813L1.6107 0.995312C1.56382 0.939062 1.49351 0.90625 1.41851 0.90625H0.171634C0.065384 0.90625 0.00757144 1.02969 0.0763214 1.11094L4.17788 6L0.0763214 10.8891C0.0609208 10.9072 0.0510407 10.9293 0.0478538 10.9529C0.0446669 10.9764 0.048307 11.0004 0.0583423 11.022C0.0683776 11.0435 0.0843867 11.0617 0.104468 11.0745C0.12455 11.0872 0.147861 11.0939 0.171634 11.0938H1.41851C1.49195 11.0938 1.56226 11.0609 1.6107 11.0047L4.99351 6.97188L8.37632 11.0047C8.4232 11.0609 8.49351 11.0938 8.56851 11.0938H9.81538C9.92163 11.0938 9.97945 10.9703 9.9107 10.8891L5.80913 6Z" fill="#8C8C8C"/>
</svg>
